<?xml version="1.0" encoding="UTF-8" standalone="no"?>
<!DOCTYPE svg PUBLIC "-//W3C//DTD SVG 1.1//EN" "http://www.w3.org/Graphics/SVG/1.1/DTD/svg11.dtd">
<svg width="100%" height="100%" viewBox="0 0 500 500" version="1.1" xmlns="http://www.w3.org/2000/svg" xmlns:xlink="http://www.w3.org/1999/xlink" xml:space="preserve" xmlns:serif="http://www.serif.com/" style="fill-rule:evenodd;clip-rule:evenodd;stroke-linejoin:round;stroke-miterlimit:2;">
    <g id="Logo-v3-Dark" serif:id="Logo v3 Dark" transform="matrix(0.704811,0,0,0.704811,-11.1156,66.1796)">
        <g id="Slash" transform="matrix(1.05955,0.174473,-0.308258,1.87201,258.367,-231.839)">
            <rect x="144.962" y="109.722" width="65.188" height="273.788" style="fill:rgb(51,51,51);"/>
        </g>
        <g id="Left-Angle-Bracket" serif:id="Left Angle Bracket">
            <g transform="matrix(-0.759307,0.759307,-0.297008,-0.297008,420.059,345.96)">
                <rect x="144.962" y="109.722" width="65.188" height="273.788" style="fill:rgb(204,0,0);"/>
            </g>
            <g transform="matrix(-0.759307,0.759307,-0.387402,-0.387402,323.911,249.812)">
                <rect x="144.962" y="109.722" width="65.188" height="273.788" style="fill:rgb(51,51,51);"/>
            </g>
            <g transform="matrix(0.759307,0.759307,-0.774803,0.774803,202.845,-146.407)">
                <rect x="144.962" y="109.722" width="65.188" height="273.788" style="fill:rgb(51,51,51);"/>
            </g>
        </g>
        <g id="Right-Angle-Bracket" serif:id="Right Angle Bracket" transform="matrix(-1,0,0,1,740.952,0)">
            <g transform="matrix(-0.759307,0.759307,-0.297008,-0.297008,420.059,345.96)">
                <rect x="144.962" y="109.722" width="65.188" height="273.788" style="fill:rgb(51,51,51);"/>
            </g>
            <g transform="matrix(-0.759307,0.759307,-0.387402,-0.387402,323.911,249.812)">
                <rect x="144.962" y="109.722" width="65.188" height="273.788" style="fill:rgb(204,0,0);"/>
            </g>
            <g transform="matrix(0.759307,0.759307,-0.774803,0.774803,202.845,-146.407)">
                <rect x="144.962" y="109.722" width="65.188" height="273.788" style="fill:rgb(204,0,0);"/>
            </g>
        </g>
    </g>
</svg>
