<?xml version="1.0" encoding="UTF-8" standalone="no"?>
<!DOCTYPE svg PUBLIC "-//W3C//DTD SVG 1.1//EN" "http://www.w3.org/Graphics/SVG/1.1/DTD/svg11.dtd">
<svg width="100%" height="100%" viewBox="0 0 48 48" version="1.1" xmlns="http://www.w3.org/2000/svg" xmlns:xlink="http://www.w3.org/1999/xlink" xml:space="preserve" xmlns:serif="http://www.serif.com/" style="fill-rule:evenodd;clip-rule:evenodd;stroke-linejoin:round;stroke-miterlimit:2;">
    <g id="_4.02" serif:id="4.02" transform="matrix(0.0125675,0,0,0.0125675,0.119285,1.69495)">
        <g transform="matrix(1,0,0,1,439.683,1591.8)">
            <path d="M0,366.037C0,366.037 -54.005,-174.017 99.01,-450.045C252.025,-726.072 414.042,-954.095 630.063,-1119.11C846.084,-1284.13 1053.11,-1476.15 1329.13,-1521.15L1605.16,-1566.16C1605.16,-1566.16 1494.15,-1419.14 1464.15,-1371.14L1434.14,-1323.13C1434.14,-1323.13 1854.18,-1371.14 2025.2,-1269.13C2196.22,-1167.12 2328.23,-1044.1 2328.23,-1044.1L2109.21,-963.096C2109.21,-963.096 2436.24,-810.081 2577.26,-660.066L2718.27,-510.05L2553.26,-495.049C2553.26,-495.049 2697.27,-396.039 2769.28,-177.017C2841.28,42.005 2859.29,198.641 2859.29,198.641C2859.29,198.641 2793.28,144.015 2751.28,126.013C2709.27,108.011 2670.27,96.01 2670.27,96.01C2670.27,96.01 2778.28,264.027 2808.28,495.05C2838.28,726.073 2853.29,792.08 2883.29,876.088C2913.29,960.097 2949.3,1071.11 2949.3,1071.11C2949.3,1071.11 2853.29,975.098 2829.28,945.095C2805.28,915.092 2793.28,894.09 2793.28,894.09C2793.28,894.09 2772.28,1032.1 2796.28,1155.12C2820.28,1278.13 2832.28,1302.13 2832.28,1302.13C2832.28,1302.13 2790.28,1242.12 2664.27,1248.12C2538.25,1254.13 2364.24,1263.13 2364.24,1263.13L2364.24,1473.15C2364.24,1473.15 2334.23,1437.14 2328.23,1389.14L2322.23,1341.13L2313.36,1266.85L1806.18,1371.14L1008.1,1404.14L372.037,783.079L276.028,906.091C276.028,906.091 330.033,1224.12 348.035,1449.14C366.037,1674.17 384.039,1932.19 384.039,1932.19C384.039,1932.19 339.034,1647.16 309.031,1590.16L279.028,1533.15C279.028,1533.15 246.025,1770.18 216.021,1845.18L186.019,1920.19C186.019,1920.19 168.017,1587.16 150.015,1350.14C132.013,1113.11 0,366.037 0,366.037" style="fill:rgb(139,0,0);fill-rule:nonzero;"/>
        </g>
        <g transform="matrix(1,0,0,1,854,619.701)">
            <path d="M0,1872.3L-172,1872.3C-172,1872.3 -282,1824.3 -346,1744.3C-410,1664.3 -458,1590.3 -438,1470.3C-418,1350.3 -432,1292.3 -330,1194.3L-228,1096.3C-228,1096.3 -146,634.299 -12,464.299C122,294.299 350.76,126.013 533.778,72.007C716.796,18.002 1142.84,0 1373.86,129.013C1604.88,258.026 1727.9,471.047 1775.9,636.064C1823.91,801.08 1811.91,1002.1 1811.91,1002.1C1811.91,1002.1 1964.92,1083.11 1994.92,1137.11C2024.93,1191.12 2106,1242.3 2080,1438.3C2054,1634.3 2050,1678.3 1978,1736.3C1906,1794.3 1816,1842.3 1768,1842.3C1720,1842.3 1696,1838.3 1696,1838.3L1734,998.299C1734,998.299 1650,536.299 1534,400.299C1418,264.299 936.472,116.299 821.236,148.299C706,180.299 414,248.299 250,372.299C86,496.299 -78,1044.3 -70,1180.3C-62,1316.3 0,1872.3 0,1872.3" style="fill:rgb(229,251,0);fill-rule:nonzero;"/>
        </g>
        <g transform="matrix(1,0,0,1,2622,1850.52)">
            <path d="M0,381.48C-11.24,433.83 -48.85,595.669 -146,785.48C-199.76,890.51 -274.41,1033.3 -424,1175.48C-538.141,1283.97 -635.17,1334.37 -785.54,1412.48C-796.17,1418 -806.52,1423.26 -816.7,1428.19C-831.65,1435.43 -846.22,1441.97 -860.75,1447.6C-899.38,1462.55 -937.71,1471.1 -982,1469.48C-1028.3,1467.79 -1076.65,1455.14 -1167.23,1403.64C-1199.52,1385.29 -1237.75,1361.67 -1279.85,1331.52C-1300.86,1316.48 -1322.84,1299.81 -1345.52,1281.36C-1379.05,1254.08 -1414.11,1222.91 -1449.87,1187.34C-1450.86,1186.37 -1451.85,1185.38 -1452.84,1184.39C-1466.57,1171 -1481.23,1156.14 -1496.51,1139.77C-1526.96,1107.15 -1559.88,1068.54 -1592.84,1023.71C-1601.52,1011.91 -1610.2,999.68 -1618.84,987.01C-1652.01,938.35 -1684.57,883.25 -1714,821.48C-1756.89,731.44 -1790.8,632.09 -1828.02,428.15C-1900.56,30.55 -1936.83,-168.26 -1888.29,-339.73C-1822.85,-570.87 -1648.6,-811.37 -1378.24,-936.79C-1048.78,-1089.62 -742.91,-994.43 -658,-966.52C-622.87,-954.98 -202.811,-809.36 -24.41,-380.38C99.561,-82.29 40.45,193.041 0,381.48" style="fill:rgb(51,51,51);fill-rule:nonzero;"/>
        </g>
        <g transform="matrix(1,0,0,1,1874,1950.11)">
            <path d="M0,222.895C-1.069,215.025 1.149,207.791 4.289,201.553C47.639,115.438 108.768,63.652 108.768,63.652C173.876,8.495 231.863,-20.1 269,-38.105C269,-38.105 324.103,-64.82 426.907,-77.822C431.998,-78.466 443.461,-79.678 453,-73.105C463.797,-65.666 466.452,-52.167 467.572,-46.025C496.221,110.995 416,200.895 416,200.895C373.324,248.721 322.865,266.704 289.623,278.551C259.886,289.15 209.657,302.573 148,297.895C148,297.895 51.906,290.605 9.25,241.68C1.315,232.581 0,222.895 0,222.895" style="fill:white;fill-rule:nonzero;"/>
        </g>
        <g transform="matrix(1,0,0,1,2355.33,2130.67)">
            <path d="M0,-442.67L0,-304.67L-324.66,-304.67L-499.86,-83.58C-494.63,-75.19 -491.6,-65.29 -491.6,-54.67C-491.6,-24.481 -516.08,0 -546.27,0C-576.46,0 -600.94,-24.481 -600.94,-54.67C-600.94,-84.859 -576.46,-109.34 -546.27,-109.34C-537.4,-109.34 -529.03,-107.231 -521.62,-103.481L-348.66,-350L-212.66,-350L-212.66,-442.67L0,-442.67Z" style="fill:white;fill-rule:nonzero;"/>
        </g>
        <g transform="matrix(1,0,0,1,2462,2929)">
            <path d="M0,-901C0,-884.63 -7.15,-869.93 -18.5,-859.86L-18.5,-524.5L-148.5,-418L-148.5,-242.5L-341.5,23.5L-447.54,23.5C-455.79,42.06 -474.38,55 -496,55C-525.27,55 -549,31.27 -549,2C-549,-27.27 -525.27,-51 -496,-51C-475.17,-51 -457.14,-38.98 -448.48,-21.5L-368,-21.5L-199.5,-244L-199.5,-418.5L-352,-501L-351.71,-553.2C-379.891,-555.59 -402,-579.21 -402,-608C-402,-638.38 -377.38,-663 -347,-663C-316.62,-663 -292,-638.38 -292,-608C-292,-592.29 -298.59,-578.11 -309.15,-568.1L-308.5,-526L-184.5,-468L-69,-548.5L-65.28,-846.96C-90.74,-851.77 -110,-874.13 -110,-901C-110,-931.38 -85.38,-956 -55,-956C-24.62,-956 0,-931.38 0,-901" style="fill:white;fill-rule:nonzero;"/>
        </g>
        <g transform="matrix(1,0,0,1,2145,2516)">
            <path d="M0,223C0,253.38 -24.62,278 -55,278C-85.35,278 -109.95,253.43 -110,223.1L-221,165L-221,45.05C-242.36,38.97 -258,19.311 -258,-4C-258,-32.17 -235.17,-55 -207,-55C-178.83,-55 -156,-32.17 -156,-4C-156,10.66 -162.18,23.88 -172.09,33.17L-162,134.5L-87.04,178.29C-78.02,171.82 -66.96,168 -55,168C-24.62,168 0,192.62 0,223" style="fill:white;fill-rule:nonzero;"/>
        </g>
        <g transform="matrix(1,0,0,1,1851.33,3242.79)">
            <path d="M0,-811.46C0,-796.29 -6.1,-782.54 -16,-772.54L-16,-461.46L-51.33,-344.79L-46.03,35.92C-60.98,43.16 -75.55,49.7 -90.08,55.33L-103.33,-344.12L-181.33,-484.12L-181.33,-562.05C-200.5,-569.93 -214,-588.78 -214,-610.79C-214,-639.88 -190.42,-663.46 -161.33,-663.46C-132.24,-663.46 -108.66,-639.88 -108.66,-610.79C-108.66,-589.59 -121.19,-571.31 -139.25,-562.96L-138.66,-485.46L-79.33,-412.12L-56.66,-497.46L-56.66,-756.14C-86.6,-756.84 -110.66,-781.34 -110.66,-811.46C-110.66,-842.021 -85.89,-866.79 -55.33,-866.79C-24.77,-866.79 0,-842.021 0,-811.46" style="fill:white;fill-rule:nonzero;"/>
        </g>
        <g transform="matrix(1,0,0,1,1342.15,2416)">
            <path d="M0,766.04L127.85,644L108.85,470L201.85,353L188.85,209L255.74,113.7C284.45,110.75 306.85,86.49 306.85,57C306.85,25.519 281.33,0 249.85,0C218.37,0 192.85,25.519 192.85,57C192.85,71.519 198.28,84.769 207.22,94.83L131.85,197L148.85,342L54.85,436L-52.15,430L-216.66,574.29C-201.38,590.66 -186.72,605.519 -172.99,618.91C-172,619.9 -171.01,620.89 -170.02,621.86L-31.15,504L64.85,500L64.85,596L-65.67,715.88" style="fill:white;fill-rule:nonzero;"/>
        </g>
        <g transform="matrix(1,0,0,1,1403,2817.23)">
            <path d="M0,-397.23C0,-375.52 -12.14,-356.64 -30,-347.02L-30,-213.23L-373.84,57C-382.52,45.2 -391.2,32.97 -399.84,20.3L-65,-245.23L-65,-340.791C-92.69,-344.68 -114,-368.47 -114,-397.23C-114,-428.71 -88.48,-454.23 -57,-454.23C-25.52,-454.23 0,-428.71 0,-397.23" style="fill:white;fill-rule:nonzero;"/>
        </g>
        <g transform="matrix(1,0,0,1,803.14,1961.08)">
            <path d="M0,98.994C0,98.994 6,602.969 17.999,752.962C29.999,902.954 116.994,1310.93 116.994,1310.93C116.994,1310.93 -56.997,829.458 -83.996,757.462C-110.994,685.465 -260.336,-91.093 -177.841,-289.083C-95.345,-487.073 12,-728.964 145.493,-868.457C278.986,-1007.95 389.98,-1096.45 611.97,-1165.44C833.958,-1234.44 1021.45,-1283.94 1021.45,-1283.94L973.452,-1213.44C973.452,-1213.44 1322.93,-1130.94 1514.92,-1045.45C1706.91,-959.953 1712.91,-953.953 1712.91,-953.953L1636.42,-892.456C1636.42,-892.456 1873.41,-662.967 1907.9,-565.472C1942.4,-467.977 1945.4,-403.481 1945.4,-403.481L1847.91,-491.976C1847.91,-491.976 1897.4,-194.991 1897.4,-115.495C1897.4,-35.999 1906.4,220.488 1906.4,220.488C1906.4,220.488 1912.4,362.981 1924.4,521.973C1936.4,680.965 1955.9,859.456 1951.4,1088.94C1946.9,1318.43 1952.06,1382.93 1952.06,1382.93C1952.06,1382.93 1921.4,1229.94 1897.4,1034.95C1873.41,839.957 1862.91,724.463 1862.91,724.463C1862.91,724.463 1826.91,971.951 1796.91,1117.44L1766.91,1262.94C1766.91,1262.94 1783.41,1085.94 1789.41,917.953C1795.41,749.962 1769.91,130.493 1769.91,130.493C1769.91,130.493 1618.42,-232.489 1558.42,-340.484C1498.42,-448.478 1415.93,-610.47 1415.93,-610.47C1415.93,-610.47 1361.93,-373.482 1331.93,-271.487C1301.93,-169.492 1243.44,-1.501 1243.44,-1.501C1243.44,-1.501 1283.94,-209.99 1286.94,-301.485C1289.94,-392.981 1274.94,-466.478 1274.94,-466.478C1274.94,-466.478 1189.44,-233.989 1052.95,-106.495C916.454,20.998 578.971,230.987 578.971,230.987C578.971,230.987 725.964,35.997 767.962,-38.999C809.959,-113.995 848.958,-170.644 848.958,-170.644L865.457,-268.487C865.457,-268.487 698.965,-73.497 560.972,50.997C422.979,175.49 353.982,226.488 353.982,226.488C353.982,226.488 478.476,76.495 517.474,-32.999C556.472,-142.493 580.471,-242.988 580.471,-242.988C580.471,-242.988 446.978,-94.496 361.482,44.997C275.986,184.49 230.989,257.986 230.989,257.986C230.989,257.986 227.989,8.999 251.987,-103.495C275.986,-215.99 335.983,-395.981 335.983,-395.981C335.983,-395.981 154.492,-214.49 94.496,-106.495C34.499,1.499 0,98.994 0,98.994" style="fill:rgb(139,0,0);fill-rule:nonzero;"/>
        </g>
    </g>
</svg>
